<svg width="28" height="28" viewBox="0 0 28 28" fill="none" xmlns="http://www.w3.org/2000/svg">
<path d="M24.3765 25.0469L23.6012 24.773C23.6037 24.7173 23.5993 24.6614 23.5881 24.6067C23.5881 24.6067 22.5372 23.9973 21.3065 24.2537C20.0759 24.5101 18.8714 25.228 18.0765 24.9716C17.9019 24.9152 17.6823 24.7804 17.4211 24.6089C18.4584 24.2826 19.6388 24.1369 19.9477 23.5874C20.4092 22.7671 21.4474 22.7089 21.4474 22.7089C21.4474 22.6275 21.4352 22.5592 21.4164 22.4984L22.2415 22.3484C22.2852 22.3405 22.3089 22.2578 22.2927 22.1646C22.2774 22.0714 22.2292 22.0032 22.185 22.0115L21.1849 22.1974C21.0322 22.1025 20.8708 22.092 20.8708 22.092C19.5832 22.0093 19.8965 23.485 18.2047 23.485C17.5379 23.485 17.1249 23.7895 16.6791 24.1202C16.011 23.6946 15.164 23.2326 14.1276 23.0177C16.2862 22.3685 19.0311 21.889 21.0576 20.6942C25.9856 17.7896 28.8302 13.3984 26.0075 8.40918C23.1887 3.42256 15.1487 -3.53719 11.9808 4.63925C10.6473 8.08106 9.46211 10.2668 8.5648 11.8116C9.16286 10.5993 9.9613 8.70056 10.3782 6.51393C5.62786 8.90881 5.75474 13.5581 6.05399 15.5382C5.96114 15.5707 5.87163 15.612 5.78667 15.6616L1.82117 17.9979C0.507361 18.7722 0.569486 21.3977 1.95942 23.856C3.06105 25.8029 4.6623 27.0602 5.93499 27.1176L5.9293 27.125C5.95467 27.125 5.97874 27.1224 6.00411 27.1219C6.04042 27.1224 6.07542 27.1197 6.11086 27.118C7.88886 27.0462 9.14449 25.9595 10.2199 25.8313C11.6076 25.6664 14.9435 26.4617 16.1117 25.2945C16.1793 25.2277 16.2521 25.1664 16.3295 25.1112C17.0554 25.6462 17.786 26.0098 18.8067 25.6655C20.3576 25.1418 21.793 24.7446 23.4337 25.2512C23.4337 25.2512 23.4774 25.1939 23.5199 25.1029L24.2566 25.3667C24.2986 25.382 24.359 25.3221 24.3927 25.2341C24.425 25.1453 24.418 25.0622 24.3765 25.0469ZM16.9438 2.60312C18.2471 1.83487 22.469 4.95643 24.3725 8.323C26.2774 11.6904 23.2609 12.3458 21.356 8.97837C19.4529 5.61268 14.7974 3.86968 16.9438 2.60312ZM6.17036 25.6922C5.27655 26.2202 3.73174 25.1974 2.72067 23.408C1.7083 21.6173 1.6138 19.74 2.50717 19.2119C3.40186 18.6865 4.94624 19.7102 5.95905 21.4987C6.97011 23.2868 7.06505 25.1654 6.17036 25.6922ZM8.38105 25.2945C8.5333 23.9982 8.15924 22.3484 7.25449 20.7462C6.36899 19.18 5.14092 17.9887 3.9413 17.4624L6.09949 16.191C6.2571 16.1008 6.43635 16.0552 6.61792 16.0593C7.5428 16.0593 9.05261 17.0743 10.149 19.0142C11.4575 21.3299 11.3897 23.5204 10.5099 24.038L8.38105 25.2945ZM13.3335 24.8146C12.3667 24.6203 11.4107 24.6299 10.5388 24.7371L12.0132 23.8678C12.2764 23.7163 12.5497 23.5831 12.8313 23.4692C13.5182 23.5357 14.468 23.7199 15.1623 24.2147C15.3745 24.3666 15.5766 24.5254 15.7739 24.6816C15.2209 24.9261 14.4872 25.0469 13.3335 24.8146Z" fill="white"/>
</svg>
