<svg xmlns="http://www.w3.org/2000/svg" width="24" height="24" fill="none" viewBox="0 0 24 24">
    <path fill="#A0A4A8" fill-rule="evenodd" d="M12 4c-1.296 0-2.73.122-4.03.279-1.947.233-3.458 1.745-3.692 3.692C4.122 9.27 4 10.704 4 12c0 1.296.122 2.73.278 4.03.234 1.946 1.745 3.458 3.693 3.691 1.3.157 2.733.279 4.029.279 1.296 0 2.73-.122 4.03-.279 1.947-.233 3.458-1.745 3.692-3.692.156-1.3.278-2.733.278-4.029 0-1.296-.122-2.73-.278-4.03-.234-1.946-1.745-3.458-3.693-3.691C14.73 4.122 13.296 4 12 4zm0-2c-1.407 0-2.928.132-4.268.292-2.862.344-5.096 2.578-5.44 5.44C2.132 9.072 2 10.593 2 12c0 1.407.132 2.928.292 4.268.344 2.862 2.578 5.096 5.44 5.44 1.34.16 2.861.292 4.268.292 1.407 0 2.928-.131 4.268-.292 2.862-.344 5.096-2.578 5.44-5.44.16-1.34.292-2.861.292-4.268 0-1.407-.131-2.928-.292-4.268-.344-2.862-2.578-5.096-5.44-5.44C14.928 2.132 13.407 2 12 2z" clip-rule="evenodd"/>
</svg>
