<svg width="38" height="35" viewBox="0 0 38 35" fill="none" xmlns="http://www.w3.org/2000/svg">
<path d="M27.6713 8.6128C27.6713 3.87576 23.7909 0 18.9999 0C14.209 0 10.3286 3.87576 10.3286 8.6128C10.3286 13.3714 14.209 17.2256 18.9999 17.2256C23.7909 17.2256 27.6713 13.3714 27.6713 8.6128V8.6128ZM4.34539 18.9266C3.35826 19.4901 2.49267 20.2413 1.79814 21.1373C1.10361 22.0334 0.593768 23.0566 0.297785 24.1486C0.00180252 25.2405 -0.0745119 26.3797 0.0732079 27.501C0.220928 28.6222 0.589783 29.7036 1.15867 30.6831C2.30893 32.6643 4.20425 34.1107 6.42791 34.7042C8.65158 35.2978 11.0215 34.9899 13.0167 33.8483C14.0032 33.2814 14.8676 32.5271 15.5606 31.6284C16.2535 30.7296 16.7615 29.7041 17.0554 28.6104C17.3493 27.5167 17.4234 26.3762 17.2735 25.2541C17.1236 24.1319 16.7526 23.05 16.1818 22.0703C13.7971 17.9577 8.48595 16.5581 4.34539 18.9266V18.9266ZM24.9832 33.8483C29.1454 36.2168 34.4349 34.8172 36.8412 30.7046C39.2258 26.5705 37.8168 21.3167 33.6545 18.9266C29.5139 16.5581 24.2028 17.9577 21.8181 22.0703C21.2473 23.05 20.8763 24.1319 20.7264 25.2541C20.5765 26.3762 20.6506 27.5167 20.9445 28.6104C21.2384 29.7041 21.7464 30.7296 22.4393 31.6284C23.1323 32.5271 23.9967 33.2814 24.9832 33.8483Z" fill="white"/>
</svg>
