<svg width="56" height="56" viewBox="0 0 56 56" fill="none" xmlns="http://www.w3.org/2000/svg">
<path d="M39.5 26H30V16.5C30 16.225 29.775 16 29.5 16H26.5C26.225 16 26 16.225 26 16.5V26H16.5C16.225 26 16 26.225 16 26.5V29.5C16 29.775 16.225 30 16.5 30H26V39.5C26 39.775 26.225 40 26.5 40H29.5C29.775 40 30 39.775 30 39.5V30H39.5C39.775 30 40 29.775 40 29.5V26.5C40 26.225 39.775 26 39.5 26Z" fill="#AFAFAF"/>
<path d="M28 0C12.5375 0 0 12.5375 0 28C0 43.4625 12.5375 56 28 56C43.4625 56 56 43.4625 56 28C56 12.5375 43.4625 0 28 0ZM28 51.25C15.1625 51.25 4.75 40.8375 4.75 28C4.75 15.1625 15.1625 4.75 28 4.75C40.8375 4.75 51.25 15.1625 51.25 28C51.25 40.8375 40.8375 51.25 28 51.25Z" fill="#AFAFAF"/>
</svg>
