<svg width="46" height="47" viewBox="0 0 46 47" fill="none" xmlns="http://www.w3.org/2000/svg">
<path d="M19.6718 39.3436C24.0364 39.3427 28.2752 37.8815 31.7134 35.1928L42.523 46.0025L46 42.5255L35.1904 31.7158C37.8805 28.2774 39.3425 24.0375 39.3436 19.6718C39.3436 8.82525 30.5183 0 19.6718 0C8.82525 0 0 8.82525 0 19.6718C0 30.5183 8.82525 39.3436 19.6718 39.3436ZM19.6718 4.91794C27.8085 4.91794 34.4256 11.535 34.4256 19.6718C34.4256 27.8085 27.8085 34.4256 19.6718 34.4256C11.535 34.4256 4.91794 27.8085 4.91794 19.6718C4.91794 11.535 11.535 4.91794 19.6718 4.91794Z" fill="white"/>
<path d="M23.1447 16.1949C24.0766 17.1293 24.5905 18.3637 24.5905 19.6718H29.5085C29.5107 18.3795 29.2566 17.0995 28.7611 15.9059C28.2656 14.7123 27.5385 13.6287 26.6216 12.7179C22.8988 8.9999 16.444 8.9999 12.7235 12.7179L16.1956 16.1998C18.0644 14.3359 21.2857 14.3408 23.1447 16.1949Z" fill="white"/>
</svg>
