<svg width="490" height="490" viewBox="0 0 490 490" fill="none" xmlns="http://www.w3.org/2000/svg">
<path fill-rule="evenodd" clip-rule="evenodd" d="M51.7638 296.713C44.9661 271.343 43.2318 244.883 46.66 218.844C50.0882 192.804 58.6117 167.695 71.7439 144.949C84.8761 122.203 102.36 102.267 123.197 86.2783C144.034 70.2895 167.816 58.5615 193.185 51.7638C218.555 44.9661 245.015 43.2318 271.054 46.66C297.094 50.0882 322.203 58.6117 344.949 71.7439C367.695 84.8761 387.631 102.36 403.62 123.197C419.608 144.034 431.336 167.816 438.134 193.185C451.863 244.421 444.676 299.012 418.154 344.949C391.632 390.886 347.949 424.405 296.713 438.134C245.477 451.863 190.886 444.676 144.949 418.154C99.0121 391.632 65.4924 347.949 51.7638 296.713V296.713ZM101.948 306.272C116.7 340.652 143.345 368.566 177.003 384.901C210.66 401.235 249.076 404.897 285.212 395.214C321.349 385.531 352.787 363.152 373.768 332.178C394.749 301.203 403.867 263.706 399.453 226.556L311.446 250.137C310.379 263.894 305.072 276.981 296.255 287.595C287.438 298.208 275.546 305.825 262.218 309.397C248.89 312.968 234.782 312.317 221.84 307.534C208.897 302.751 197.757 294.071 189.954 282.691L101.948 306.272ZM387.95 183.626C373.224 149.211 346.583 121.261 312.915 104.9C279.246 88.5397 240.808 84.8668 204.651 94.5551C168.494 104.243 137.042 126.643 116.065 157.646C95.0872 188.649 85.9912 226.175 90.4449 263.342L178.451 239.761C179.518 226.004 184.826 212.917 193.643 202.303C202.46 191.69 214.352 184.072 227.68 180.501C241.008 176.93 255.116 177.581 268.058 182.364C281.001 187.147 292.141 195.827 299.943 207.207L387.95 183.626ZM250.7 266.414C256.393 264.889 261.247 261.164 264.194 256.06C267.141 250.956 267.939 244.89 266.414 239.197C264.889 233.505 261.164 228.651 256.06 225.704C250.956 222.757 244.89 221.959 239.197 223.484C233.505 225.009 228.651 228.734 225.704 233.838C222.757 238.942 221.959 245.008 223.484 250.7C225.009 256.393 228.734 261.247 233.838 264.194C238.942 267.141 245.008 267.939 250.7 266.414V266.414Z" fill="#EEEEEE" fill-opacity="0.25"/>
</svg>
