<svg width="20" height="20" viewBox="0 0 20 20" fill="none" xmlns="http://www.w3.org/2000/svg">
<path fill-rule="evenodd" clip-rule="evenodd" d="M10 0C8.59314 0 7.07154 0.131527 5.73241 0.292311C2.86967 0.636033 0.636033 2.86967 0.292311 5.73241C0.131526 7.07154 0 8.59314 0 10C0 11.4069 0.131527 12.9285 0.292311 14.2676C0.636033 17.1303 2.86967 19.364 5.73241 19.7077C7.07154 19.8685 8.59314 20 10 20C11.4069 20 12.9285 19.8685 14.2676 19.7077C17.1303 19.364 19.364 17.1303 19.7077 14.2676C19.8685 12.9285 20 11.4069 20 10C20 8.59314 19.8685 7.07154 19.7077 5.73241C19.364 2.86967 17.1303 0.636033 14.2676 0.292311C12.9285 0.131526 11.4069 0 10 0ZM15.7071 6.29137C16.0976 6.68198 16.0976 7.31529 15.7071 7.7059L9.70711 13.7072C9.31658 14.0979 8.68342 14.0979 8.29289 13.7072L5.29289 10.7066C4.90237 10.316 4.90237 9.68265 5.29289 9.29204C5.68342 8.90143 6.31658 8.90143 6.70711 9.29204L9 11.5854L14.2929 6.29137C14.6834 5.90076 15.3166 5.90076 15.7071 6.29137Z" fill="#06C167"/>
</svg>
