<svg width="35" height="43" viewBox="0 0 35 43" fill="none" xmlns="http://www.w3.org/2000/svg">
<path d="M19.4444 43H15.5556V0H19.4444V43ZM11.6667 35.1818H3.88889V7.81818H11.6667V3.90909H3.88889C1.73056 3.90909 0 5.64864 0 7.81818V35.1818C0 36.2186 0.409721 37.2129 1.13903 37.946C1.86834 38.6791 2.85749 39.0909 3.88889 39.0909H11.6667V35.1818ZM31.1111 11.7273V15.6364H35V11.7273H31.1111ZM31.1111 7.81818H35C35 6.78143 34.5903 5.78713 33.861 5.05404C33.1317 4.32094 32.1425 3.90909 31.1111 3.90909V7.81818ZM35 27.3636H31.1111V31.2727H35V27.3636ZM31.1111 19.5455V23.4545H35V19.5455H31.1111ZM27.2222 3.90909H23.3333V7.81818H27.2222V3.90909ZM31.1111 39.0909C33.2694 39.0909 35 37.3514 35 35.1818H31.1111V39.0909ZM27.2222 35.1818H23.3333V39.0909H27.2222V35.1818Z" fill="white"/>
</svg>
