<svg width="153" height="28" viewBox="0 0 153 28" fill="none" xmlns="http://www.w3.org/2000/svg">
<path d="M6.32 27V17.48H13.12C18.88 17.48 22.08 13.56 22.08 8.92001C22.08 4.24001 18.92 0.320007 13.12 0.320007H0.639999V27H6.32ZM12.32 12.48H6.32V5.32001H12.32C14.56 5.32001 16.28 6.68001 16.28 8.92001C16.28 11.12 14.56 12.48 12.32 12.48Z" fill="#545454"/>
<path d="M33 7.00001C34.3132 7.00001 35.6136 7.25867 36.8268 7.76121C38.0401 8.26376 39.1425 9.00036 40.0711 9.92894C40.9997 10.8575 41.7362 11.9599 42.2388 13.1732C42.7413 14.3864 43 15.6868 43 17C43 19.6522 41.9464 22.1957 40.0711 24.0711C38.1957 25.9464 35.6522 27 33 27C31.6868 27 30.3864 26.7414 29.1732 26.2388C27.9599 25.7363 26.8575 24.9997 25.9289 24.0711C24.0536 22.1957 23 19.6522 23 17C23 14.3478 24.0536 11.8043 25.9289 9.92894C27.8043 8.05358 30.3478 7.00001 33 7.00001ZM33 9.00001C28.92 9.00001 25.55 12.05 25.06 16H29.13C29.57 14.27 31.14 13 33 13C34.86 13 36.43 14.27 36.87 16H40.94C40.45 12.05 37.08 9.00001 33 9.00001ZM33 25C37.08 25 40.45 21.95 40.94 18H36.87C36.43 19.73 34.86 21 33 21C31.14 21 29.57 19.73 29.13 18H25.06C25.55 21.95 28.92 25 33 25ZM33 15C32.4696 15 31.9609 15.2107 31.5858 15.5858C31.2107 15.9609 31 16.4696 31 17C31 17.5304 31.2107 18.0391 31.5858 18.4142C31.9609 18.7893 32.4696 19 33 19C33.5304 19 34.0391 18.7893 34.4142 18.4142C34.7893 18.0391 35 17.5304 35 17C35 16.4696 34.7893 15.9609 34.4142 15.5858C34.0391 15.2107 33.5304 15 33 15Z" fill="#545454"/>
<path d="M65.4 27L57.52 16.44L65.16 7.68001H58.92L51.6 16.28V0.320007H46.52V27H51.6V22.04L53.92 19.56L59.04 27H65.4Z" fill="#545454"/>
<path d="M76.7719 27.48C79.7719 27.48 82.8119 26.56 84.7319 24.8L82.4519 21.44C81.2119 22.64 78.9719 23.32 77.3319 23.32C74.0519 23.32 72.1319 21.36 71.7719 19H86.1319V17.8C86.1319 11.52 82.2519 7.20001 76.4519 7.20001C70.6119 7.20001 66.4519 11.72 66.4519 17.32C66.4519 23.52 70.8919 27.48 76.7719 27.48ZM81.2519 15.48H71.7319C71.9319 13.56 73.2919 11.36 76.4519 11.36C79.8119 11.36 81.0919 13.64 81.2519 15.48Z" fill="#545454"/>
<path d="M108.201 27V0.320007H103.081V10.16C101.561 8.16001 99.4012 7.20001 97.1212 7.20001C92.2012 7.20001 88.5612 11.04 88.5612 17.32C88.5612 23.8 92.2812 27.48 97.1212 27.48C99.4812 27.48 101.561 26.44 103.081 24.52V27H108.201ZM98.7213 22.96C95.8013 22.96 93.8012 20.68 93.8012 17.32C93.8012 14 95.8013 11.72 98.7213 11.72C100.401 11.72 102.241 12.64 103.081 13.92V20.76C102.241 22.04 100.401 22.96 98.7213 22.96Z" fill="#545454"/>
<path d="M122.319 27.48C125.319 27.48 128.359 26.56 130.279 24.8L127.999 21.44C126.759 22.64 124.519 23.32 122.879 23.32C119.599 23.32 117.679 21.36 117.319 19H131.679V17.8C131.679 11.52 127.799 7.20001 121.999 7.20001C116.159 7.20001 111.999 11.72 111.999 17.32C111.999 23.52 116.439 27.48 122.319 27.48ZM126.799 15.48H117.279C117.479 13.56 118.839 11.36 121.999 11.36C125.359 11.36 126.639 13.64 126.799 15.48Z" fill="#545454"/>
<path d="M152.988 27L146.108 17.08L152.548 7.68001H146.868L142.908 13.6L138.908 7.68001H133.228L139.708 17.08L132.828 27H138.468L142.908 20.48L147.308 27H152.988Z" fill="#545454"/>
</svg>
