<svg width="24" height="25" viewBox="0 0 24 25" fill="none" xmlns="http://www.w3.org/2000/svg">
<path d="M10.2635 20.5271C12.5407 20.5266 14.7523 19.7643 16.5461 18.3615L22.1859 24.0013L24 22.1872L18.3602 16.5474C19.7637 14.7534 20.5265 12.5413 20.5271 10.2635C20.5271 4.60448 15.9226 0 10.2635 0C4.60448 0 0 4.60448 0 10.2635C0 15.9226 4.60448 20.5271 10.2635 20.5271ZM10.2635 2.56588C14.5088 2.56588 17.9612 6.01828 17.9612 10.2635C17.9612 14.5088 14.5088 17.9612 10.2635 17.9612C6.01828 17.9612 2.56588 14.5088 2.56588 10.2635C2.56588 6.01828 6.01828 2.56588 10.2635 2.56588Z" fill="#545454"/>
<path d="M12.0755 8.44949C12.5617 8.93701 12.8298 9.58105 12.8298 10.2636H15.3957C15.3969 9.5893 15.2643 8.92148 15.0058 8.29873C14.7473 7.67598 14.3679 7.11065 13.8896 6.63541C11.9472 4.69561 8.57945 4.69561 6.63836 6.63541L8.44988 8.45206C9.42491 7.47959 11.1056 7.48216 12.0755 8.44949Z" fill="#545454"/>
</svg>
