<svg width="1425" height="509" viewBox="0 0 1425 509" fill="none" xmlns="http://www.w3.org/2000/svg">
<path d="M264.991 236.313C260.181 210.651 226.338 196.525 192.731 214.653L201.4 243.965L215.056 287.343L221.231 307.06C246.347 291.051 271.7 271.804 264.991 236.254V236.313ZM231.622 275.748C227.797 263.247 223.898 250.769 219.925 238.314L216.422 226.366C222.997 224.96 229.852 225.64 236.016 228.308C239.162 229.839 244.684 233.252 245.872 239.845C248.662 254.559 243.675 265.094 231.622 275.63V275.748ZM772.409 195.584C767.769 191.345 762.297 188.099 756.336 186.049C750.375 183.998 744.052 183.186 737.76 183.664C731.468 184.141 725.343 185.898 719.767 188.825C714.19 191.751 709.281 195.785 705.346 200.675C701.41 205.564 698.533 211.205 696.893 217.245C695.252 223.285 694.885 229.595 695.812 235.782C696.739 241.969 698.942 247.901 702.283 253.207C705.624 258.513 710.032 263.081 715.231 266.625L775.675 198.762C774.626 197.664 773.536 196.603 772.409 195.584V195.584ZM715.35 243.376C712.426 238.089 711.211 232.039 711.869 226.045C712.528 220.05 715.027 214.401 719.03 209.861C723.034 205.322 728.347 202.11 734.251 200.662C740.156 199.214 746.367 199.598 752.044 201.764L715.35 243.376ZM1163.69 256.619C1164.24 258.632 1164.5 260.713 1164.46 262.799C1163.87 275.453 1151.82 285.283 1137.51 284.576C1123.2 284.105 1111.98 273.334 1112.57 260.739C1112.98 248.791 1123.67 239.433 1136.85 238.844C1134.28 238.269 1131.65 237.934 1129.02 237.843C1104.97 236.843 1085.38 253.735 1084.6 274.688C1083.59 297.054 1101.76 315.418 1125.33 316.418C1149.44 317.301 1168.97 300.409 1169.87 278.102C1170.12 270.486 1167.98 262.979 1163.75 256.619H1163.69ZM436.109 282.281C436.109 294.994 424.413 305.235 410.103 305.235C395.734 305.235 384.097 295.053 384.097 282.281C384.097 270.392 394.369 260.621 407.491 259.444C404.905 258.975 402.282 258.739 399.653 258.738C375.666 258.738 356.725 276.395 356.725 297.348C356.725 319.832 375.725 337.371 399.237 337.371C423.284 337.371 442.166 319.832 442.166 297.348C442.136 289.758 439.661 282.375 435.1 276.277C435.694 278.043 436.109 280.103 436.109 282.281V282.281ZM1312.96 153.677L1302.27 197.173L1292.42 148.91L1160.72 120.246L1161.67 192.817L1181.5 197.232L1180.08 210.357L1179.48 209.945C1154.9 197.114 1124.44 195.819 1095.77 206.531C1086.09 210.063 1077.12 214.948 1069.05 220.775L1049.16 96.4675H961.578L959.203 110.829H866.994L856.484 174.689L848.766 165.331C837.792 152.006 823.987 141.246 808.335 133.819C792.683 126.392 775.571 122.481 758.219 122.365L836.475 80.6348L781.969 0L683.228 112.594L700.269 133.195C685.48 139.108 671.915 147.667 660.25 158.445L575.7 84.0486L546.191 140.14L547.319 86.2263L415.15 128.133L418.534 198.526L441.037 192.758L444.363 228.367C418.653 217.008 387.719 217.184 359.1 229.191C350.733 232.819 342.79 237.338 335.409 242.67C340.646 221.962 339.043 200.136 330.838 180.398C320.941 157.962 303.902 139.356 282.328 127.427C266.9 117.434 249.296 111.22 230.969 109.298C185.25 101.353 130.269 109.475 76.2375 132.371C57.112 140.326 38.6826 149.834 21.1375 160.799L0 174.101L12.7656 195.466L52.3688 261.798C52.3688 261.798 64.4813 282.163 64.5406 282.104L85.975 271.686L88.9438 270.333L187.387 488.106L196.887 509L218.856 502.055L272.056 485.104L295.45 477.747L289.275 454.204L261.012 346.553C269.147 340.609 276.687 334.252 283.753 327.66C282.15 340.55 282.981 353.557 286.544 366.035C293.906 392.109 311.244 412.709 335.113 424.069C360.941 436.429 392.409 436.429 421.562 424.186C436.228 418.065 449.291 409.06 460.216 398.348L464.253 441.196L557.472 427.6L557.353 344.788L752.222 440.137V347.73C780.427 344.949 807.701 336.198 832.2 322.068L824.006 371.685L929.1 388.107L934.859 350.614L962.231 400.879L979.034 368.801L985.209 421.479L1104.26 442.197L1097.96 402.527C1119.22 404.781 1140.67 400.724 1159.59 390.873L1154.84 433.133L1234.17 444.257L1234.76 476.452L1317.29 502.231L1425 180.634L1312.96 153.677ZM847.519 201.352L852.981 195.642L846.331 236.254L829.172 220.834L847.519 201.352ZM777.634 35.7854L806.55 74.6902L724.019 115.243L718.259 106.65L777.634 35.7854ZM231.266 335.429L264.219 460.678L210.9 477.57L101.591 235.548C95.6531 238.667 84.7281 243.788 74.575 248.673L35.0312 182.4C50.825 172.453 68.0438 163.624 86.3906 155.914C137.928 134.195 187.15 127.662 226.516 134.607C240.35 136.196 255.075 140.199 268.078 148.733C285.772 158.621 299.25 172.629 307.087 190.581C326.087 234.135 294.322 296.936 231.325 335.429H231.266ZM476.247 313.181C475.653 331.898 468.706 350.497 457.187 366.329C445.907 381.988 430.531 394.3 412.716 401.938C366.463 421.361 320.269 401.938 307.978 358.384C295.925 316.359 323.772 266.272 368.541 247.143C397.219 235.254 425.897 238.02 446.441 251.851C459.088 260.445 468.825 273.276 473.338 289.344C475.544 297.113 476.526 305.173 476.247 313.24V313.181ZM727.759 401.703L534.553 305.824L534.909 406.294L484.856 413.062L481.353 371.685C496.791 345.435 502.431 314.476 494.416 286.107C490.175 270.932 481.984 257.13 470.666 246.083L463.481 161.741L441.097 167.509L440.088 146.202L520.362 122.424L525.291 204.589L584.487 122.188L642.319 176.749L561.45 261.269L637.45 291.109C645.881 307.001 658.825 320.538 675.094 330.544C690.769 340.138 708.819 345.847 727.878 347.672V401.703H727.759ZM627.416 262.799L600.459 252.558L625.575 228.426C624.447 239.491 624.981 251.086 627.356 262.799H627.416ZM837.722 287.931C819.197 303.175 797.941 313.063 770.094 319.714C764.194 321.124 758.202 322.127 752.163 322.716C707.809 327.013 670.581 306.824 656.45 274.1C654.704 270.133 653.333 266.015 652.353 261.798C645.822 234.253 651.403 209.592 665.119 190.286C669.134 184.632 673.818 179.474 679.072 174.925C692.876 163.006 709.438 154.655 727.284 150.616C769.559 140.552 806.788 153.324 829.588 181.046L749.134 266.036C756.025 266.603 762.962 265.945 769.619 264.094C788.797 259.444 799.544 249.379 808.984 238.432L841.166 267.037L850.903 275.865C846.716 280.103 842.316 284.13 837.722 287.931V287.931ZM1008.54 401.35L991.087 286.342L966.269 349.79L929.159 270.45H928.744L914.137 362.268L852.328 351.674L860.997 300.468C863.337 298.276 865.633 296.039 867.884 293.758L887.953 273.276L868.419 255.971L889.2 133.96H951.544L967.1 218.479L984.556 120.599H1029.21L1047.73 239.845C1024.22 266.389 1012.7 302.234 1020.66 334.899C1023.73 348.365 1029.99 360.912 1038.92 371.505C1047.85 382.097 1059.19 390.431 1072.02 395.817L1074.39 411.297L1008.54 401.35ZM1162.62 363.857C1155.71 368.731 1148.18 372.688 1140.24 375.629C1125.68 381.41 1109.76 382.982 1094.34 380.161C1084.77 378.352 1075.7 374.539 1067.74 368.978C1054.82 359.601 1045.75 345.909 1042.21 330.426C1037.46 310.65 1041.79 289.461 1052.54 270.862C1057.94 261.798 1064.83 253.323 1072.97 245.966C1081.99 237.902 1092.56 231.251 1104.26 226.837C1131.51 216.713 1158.41 220.245 1177.29 233.664C1189.92 242.66 1198.83 255.901 1202.34 270.921C1208.16 294.817 1201.27 320.244 1186.07 340.785C1179.55 349.667 1171.63 357.456 1162.62 363.857V363.857ZM1301.74 472.214L1256.02 458.736L1252.1 291.698L1229.06 420.596L1179.19 412.65L1182.87 375.57C1215.35 348.26 1232.62 305.235 1223.18 266.33C1219.24 249.493 1210.26 234.229 1197.42 222.54L1201.63 178.809L1182.81 173.806L1184 150.499L1269.97 167.567L1298.89 303.411L1328.52 181.634L1393.83 195.996L1301.74 472.214Z" fill="#EEEEEE" fill-opacity="0.3"/>
</svg>
